<svg xmlns="http://www.w3.org/2000/svg" width="319.9" height="60.092" viewBox="0 0 319.9 60.092"><g transform="translate(-5156.041 -72.987)"><path d="M5182.748,99.539l-.121.192a4.162,4.162,0,0,1-5.88,1.207h0a6.423,6.423,0,0,0-3.658-1.243,5.947,5.947,0,0,0-2.167.462,6.27,6.27,0,0,0-2.2,1.527,8.727,8.727,0,0,0-1.74,2.805,11.4,11.4,0,0,0-.71,4.3v22.129a1.027,1.027,0,0,1-1.027,1.027h-7.1a2.1,2.1,0,0,1-2.1-2.1V94.688a3.8,3.8,0,0,1,3.8-3.8h3.883a2.544,2.544,0,0,1,2.544,2.544v1.73a.042.042,0,0,0,.076.023,14.647,14.647,0,0,1,4.008-3.942,9.158,9.158,0,0,1,5.008-1.42,10.7,10.7,0,0,1,5.292,1.456l.013.007A5.876,5.876,0,0,1,5182.748,99.539Z" fill="#4453a6"/><path d="M5229.009,111.344a20.611,20.611,0,0,1-.106,2.06l0,.021a2.43,2.43,0,0,1-2.42,2.181H5196.5a.473.473,0,0,0-.439.643,14.234,14.234,0,0,0,1.375,2.731,11.223,11.223,0,0,0,2.522,2.77,11.944,11.944,0,0,0,3.374,1.847,12.227,12.227,0,0,0,4.155.675,16.844,16.844,0,0,0,5.54-.959q.776-.269,1.477-.589a5.587,5.587,0,0,1,6.277,1.133h0a3.8,3.8,0,0,1-.837,6.024,24.454,24.454,0,0,1-4.182,1.813,28.012,28.012,0,0,1-8.63,1.314,22.087,22.087,0,0,1-15.591-6.321,21.557,21.557,0,0,1-4.653-6.855,21.639,21.639,0,0,1,0-16.834,21.287,21.287,0,0,1,4.688-6.855,22.624,22.624,0,0,1,6.961-4.617,21.415,21.415,0,0,1,8.524-1.7,22.075,22.075,0,0,1,8.31,1.6,22.606,22.606,0,0,1,7.033,4.439,20.76,20.76,0,0,1,6.6,15.485Zm-11.38-3.978a.473.473,0,0,0,.442-.637,12.2,12.2,0,0,0-4.085-5.649,11.168,11.168,0,0,0-7-2.38,10.922,10.922,0,0,0-6.89,2.38,12.261,12.261,0,0,0-4.049,5.65.473.473,0,0,0,.441.636Z" fill="#4453a6"/><path d="M5266.847,131.943h-8.667a.781.781,0,0,1-.78-.781v-1.343a.042.042,0,0,0-.066-.034,16.885,16.885,0,0,1-5.652,2.513,27.092,27.092,0,0,1-6.216.71,15.549,15.549,0,0,1-5.4-.888,12.152,12.152,0,0,1-4.191-2.557,11.441,11.441,0,0,1-2.734-3.942,12.832,12.832,0,0,1-.959-5.043,11.738,11.738,0,0,1,1.527-6.073,13.194,13.194,0,0,1,4.155-4.333,19.257,19.257,0,0,1,6.144-2.593,32.067,32.067,0,0,1,7.565-.852h5.852a.044.044,0,0,0,.044-.044,7.383,7.383,0,0,0-2.344-5.71q-2.344-2.13-6.748-2.13a13.509,13.509,0,0,0-4.4.781,10.878,10.878,0,0,0-1.912.883,4.294,4.294,0,0,1-5.224-.663h0a4.318,4.318,0,0,1,.923-6.773,24.231,24.231,0,0,1,12.037-3.249,20.076,20.076,0,0,1,7.59,1.349,15.59,15.59,0,0,1,9.146,9.518,27.923,27.923,0,0,1,1.093,8.524v21.949A.781.781,0,0,1,5266.847,131.943ZM5257.4,121.69v-7.534a.042.042,0,0,0-.043-.042h-4.645a27.1,27.1,0,0,0-4.014.284,11.325,11.325,0,0,0-3.267.959,6.063,6.063,0,0,0-2.2,1.74,4.08,4.08,0,0,0-.817,2.558,4.27,4.27,0,0,0,1.669,3.48,6.615,6.615,0,0,0,4.3,1.35,14.812,14.812,0,0,0,4.51-.711,21.614,21.614,0,0,0,4.489-2.047A.044.044,0,0,0,5257.4,121.69Z" fill="#4453a6"/><path d="M5292.843,129.421a3.265,3.265,0,0,1-2.473,3.169q-.13.033-.262.063a13.9,13.9,0,0,1-3.161.355,15.707,15.707,0,0,1-4.368-.6,9.556,9.556,0,0,1-3.658-1.953,9.421,9.421,0,0,1-2.486-3.516,13.271,13.271,0,0,1-.923-5.221V76.252a3.264,3.264,0,0,1,3.264-3.265h3.912a3.265,3.265,0,0,1,3.265,3.265v43.687q0,2.556,1.03,3.516a3.473,3.473,0,0,0,2.451.959h.035a3.293,3.293,0,0,1,3.374,3.261Z" fill="#4453a6"/><path d="M5337.52,129.421a3.265,3.265,0,0,1-2.473,3.169c-.087.022-.174.043-.262.063a13.907,13.907,0,0,1-3.161.355,15.708,15.708,0,0,1-4.368-.6,9.554,9.554,0,0,1-3.658-1.953,9.427,9.427,0,0,1-2.486-3.516,13.28,13.28,0,0,1-.923-5.221V76.252a3.264,3.264,0,0,1,3.264-3.265h3.912a3.265,3.265,0,0,1,3.265,3.265v43.687q0,2.556,1.03,3.516a3.473,3.473,0,0,0,2.451.959h.035a3.293,3.293,0,0,1,3.374,3.261Z" fill="#4453a6"/><path d="M5349.741,83.713H5345.9a3.4,3.4,0,0,1-3.4-3.4V76.463a3.4,3.4,0,0,1,3.4-3.4h3.844a3.4,3.4,0,0,1,3.4,3.4v3.845A3.4,3.4,0,0,1,5349.741,83.713Zm-.142,48.23h-3.56a3.405,3.405,0,0,1-3.405-3.4V94.221a3.405,3.405,0,0,1,3.405-3.4h3.56a3.4,3.4,0,0,1,3.4,3.4v34.317A3.4,3.4,0,0,1,5349.6,131.943Z" fill="#4453a6"/><path d="M5398.727,131.943h-8.2a1.016,1.016,0,0,1-1.016-1.016v-23.49a10.233,10.233,0,0,0-.678-3.871,7.953,7.953,0,0,0-1.819-2.77,7.337,7.337,0,0,0-2.6-1.634,8.787,8.787,0,0,0-3.031-.533,13.687,13.687,0,0,0-4.637.817,11.5,11.5,0,0,0-3.808,2.289,1.008,1.008,0,0,0-.328.751v28.441a1.016,1.016,0,0,1-1.016,1.016h-8.2a1.016,1.016,0,0,1-1.016-1.016V91.9a1.016,1.016,0,0,1,1.016-1.016h8.22a1.016,1.016,0,0,1,1.016.992h0a1.012,1.012,0,0,0,1.571.825q.357-.24.75-.467a17.723,17.723,0,0,1,2.8-1.314,18.479,18.479,0,0,1,2.984-.817,16.13,16.13,0,0,1,2.948-.284,18.268,18.268,0,0,1,6,.994,14.465,14.465,0,0,1,5.114,3.054,14.8,14.8,0,0,1,3.587,5.328,20.227,20.227,0,0,1,1.349,7.742v23.987A1.015,1.015,0,0,1,5398.727,131.943Z" fill="#4453a6"/><path d="M5443.085,131.943h-7.911a1.564,1.564,0,0,1-1.165-.521l-13.283-14.829a1.565,1.565,0,0,0-2.73,1.044v12.741a1.565,1.565,0,0,1-1.564,1.565h-7.313a1.564,1.564,0,0,1-1.564-1.565V74.623a1.564,1.564,0,0,1,1.564-1.565h7.313A1.565,1.565,0,0,1,5418,74.623v29.31a1.565,1.565,0,0,0,2.772,1l11.107-13.472a1.566,1.566,0,0,1,1.207-.569h7.83a1.564,1.564,0,0,1,1.195,2.573l-13.78,16.339a1.564,1.564,0,0,0,.038,2.062l15.878,17.465A1.565,1.565,0,0,1,5443.085,131.943Z" fill="#4453a6"/><path d="M5475.941,120.436a10.381,10.381,0,0,1-1.424,5.434,12.894,12.894,0,0,1-3.7,3.977,16.963,16.963,0,0,1-5.125,2.415,20.356,20.356,0,0,1-5.624.817,21.223,21.223,0,0,1-8.65-1.74,17.139,17.139,0,0,1-5.355-3.757,2.451,2.451,0,0,1,.013-3.436l2.781-2.813a2.432,2.432,0,0,1,3.375-.1,13.183,13.183,0,0,0,2.687,1.941,10.677,10.677,0,0,0,5.185,1.314,8.182,8.182,0,0,0,4.013-.888,2.867,2.867,0,0,0,1.6-2.664q0-1.846-2.273-3.09a33.421,33.421,0,0,0-6.392-2.45,30.245,30.245,0,0,1-4.688-1.812,17.155,17.155,0,0,1-4.049-2.7,12.783,12.783,0,0,1-2.841-3.658,10.2,10.2,0,0,1-1.066-4.759,10.444,10.444,0,0,1,1.389-5.363,12.656,12.656,0,0,1,3.63-3.977,17.164,17.164,0,0,1,5.091-2.451,20.011,20.011,0,0,1,5.767-.852,19.1,19.1,0,0,1,13.651,5.268A2.457,2.457,0,0,1,5474,98.6l-2.668,2.7a2.465,2.465,0,0,1-3.416.066,13.292,13.292,0,0,0-2.414-1.744,9.976,9.976,0,0,0-4.972-1.279,8.361,8.361,0,0,0-1.953.249,8.46,8.46,0,0,0-1.918.71,4.283,4.283,0,0,0-1.456,1.208,2.677,2.677,0,0,0-.568,1.669q0,1.635,2.166,2.841a32,32,0,0,0,6.215,2.415,28.767,28.767,0,0,1,4.972,1.989,19.413,19.413,0,0,1,4.12,2.806,12.465,12.465,0,0,1,2.806,3.622A9.97,9.97,0,0,1,5475.941,120.436Z" fill="#4453a6"/></g></svg>